<mxfile host="app.diagrams.net" modified="2024-01-18T14:59:19.353Z" agent="Mozilla/5.0 (Macintosh; Intel Mac OS X 10.15; rv:121.0) Gecko/20100101 Firefox/121.0" version="22.1.18" etag="HtaPeakHnxLnC-S44-c3" type="github">
  <diagram name="Page-1" id="8bLc9t37iYr__kC_FxyD">
    <mxGraphModel>
      <root>
        <mxCell id="0" />
        <mxCell id="1" parent="0" />
      </root>
    </mxGraphModel>
  </diagram>
</mxfile>
